<svg xmlns="http://www.w3.org/2000/svg"  viewBox="0 0 100 100" width="200px" height="200px"><path fill="#88ae45" d="M13 27A2 2 0 1 0 13 31A2 2 0 1 0 13 27Z"/><path fill="#f1bc19" d="M77 12A1 1 0 1 0 77 14A1 1 0 1 0 77 12Z"/><path fill="#e6edb7" d="M50 13A37 37 0 1 0 50 87A37 37 0 1 0 50 13Z"/><path fill="#f1bc19" d="M83 11A4 4 0 1 0 83 19A4 4 0 1 0 83 11Z"/><path fill="#88ae45" d="M87 22A2 2 0 1 0 87 26A2 2 0 1 0 87 22Z"/><path fill="#fbcd59" d="M81 74A2 2 0 1 0 81 78 2 2 0 1 0 81 74zM15 59A4 4 0 1 0 15 67 4 4 0 1 0 15 59z"/><path fill="#88ae45" d="M25 85A2 2 0 1 0 25 89A2 2 0 1 0 25 85Z"/><path fill="#fff" d="M18.5 51A2.5 2.5 0 1 0 18.5 56A2.5 2.5 0 1 0 18.5 51Z"/><path fill="#f1bc19" d="M21 66A1 1 0 1 0 21 68A1 1 0 1 0 21 66Z"/><path fill="#fff" d="M80 33A1 1 0 1 0 80 35A1 1 0 1 0 80 33Z"/><g><path fill="#88ae45" d="M50 26.042A23.958 23.958 0 1 0 50 73.958A23.958 23.958 0 1 0 50 26.042Z"/><path fill="#472b29" d="M50,26.4c13.013,0,23.6,10.587,23.6,23.6S63.013,73.6,50,73.6S26.4,63.013,26.4,50 S36.987,26.4,50,26.4 M50,25c-13.807,0-25,11.193-25,25s11.193,25,25,25s25-11.193,25-25S63.807,25,50,25L50,25z"/><path fill="#fdfcee" d="M30.832,46.5C30.625,47.638,30.5,48.804,30.5,50c0,10.752,8.748,19.5,19.5,19.5S69.5,60.752,69.5,50 S60.752,30.5,50,30.5c-6.451,0-12.164,3.163-15.716,8.005l-0.41-0.3c-0.928,1.267-1.724,2.635-2.336,4.103l0.466,0.194 c-0.271,0.648-0.5,1.317-0.701,1.999l-0.482-0.141l0,0c-0.197,0.67-0.355,1.355-0.481,2.051L30.832,46.5z"/><path fill="#472b29" d="M50,70c-11.028,0-20-8.972-20-20c0-1.16,0.11-2.333,0.338-3.589c0.05-0.272,0.313-0.452,0.581-0.403 c0.272,0.049,0.452,0.31,0.403,0.582C31.105,47.785,31,48.901,31,50c0,10.477,8.523,19,19,19s19-8.523,19-19s-8.523-19-19-19 c-6.016,0-11.743,2.914-15.319,7.795c-0.162,0.224-0.475,0.271-0.699,0.108c-0.223-0.163-0.271-0.476-0.107-0.699 C37.638,33.067,43.666,30,50,30c11.028,0,20,8.972,20,20S61.028,70,50,70z"/><path fill="#472b29" d="M31.3,45c-0.047,0-0.094-0.006-0.141-0.02c-0.266-0.078-0.417-0.356-0.339-0.621 c0.22-0.751,0.455-1.422,0.717-2.052c0.106-0.256,0.402-0.375,0.654-0.269c0.255,0.106,0.375,0.399,0.27,0.654 c-0.248,0.595-0.472,1.232-0.682,1.948C31.716,44.859,31.517,45,31.3,45z"/></g><g><path fill="#eab436" d="M45.75,39.25V44c0,0.414-0.336,0.75-0.75,0.75s-0.75-0.336-0.75-0.75v-1.969V41.53l-0.4,0.302 c-2.567,1.933-4.1,4.987-4.1,8.169c0,5.652,4.598,10.25,10.25,10.25S60.25,55.652,60.25,50c0-3.326-1.643-6.46-4.394-8.385 c-0.339-0.237-0.421-0.706-0.184-1.045c0.14-0.2,0.37-0.32,0.614-0.32c0.154,0,0.303,0.047,0.43,0.135 c3.152,2.205,5.034,5.8,5.034,9.615c0,6.479-5.271,11.75-11.75,11.75c-6.479,0-11.75-5.271-11.75-11.75 c0-3.364,1.459-6.576,4.004-8.812l0.498-0.438h-0.663H41c-0.414,0-0.75-0.336-0.75-0.75s0.336-0.75,0.75-0.75H45.75"/><path fill="#472b29" d="M45.5,39.5V44c0,0.276-0.224,0.5-0.5,0.5s-0.5-0.224-0.5-0.5v-1.969v-1.003l-0.801,0.603 C41.07,43.612,39.5,46.74,39.5,50c0,5.79,4.71,10.5,10.5,10.5S60.5,55.79,60.5,50c0-3.407-1.682-6.619-4.5-8.59 c-0.226-0.158-0.281-0.47-0.123-0.697c0.093-0.133,0.246-0.213,0.409-0.213c0.103,0,0.202,0.031,0.287,0.09 C59.658,42.749,61.5,46.267,61.5,50c0,6.341-5.159,11.5-11.5,11.5S38.5,56.341,38.5,50c0-3.293,1.428-6.436,3.919-8.624 l0.997-0.876h-1.327H41c-0.276,0-0.5-0.224-0.5-0.5s0.224-0.5,0.5-0.5H45.5 M46,39h-5c-0.553,0-1,0.448-1,1s0.447,1,1,1h1.089 C39.511,43.265,38,46.539,38,50c0,6.617,5.383,12,12,12s12-5.383,12-12c0-3.896-1.922-7.567-5.141-9.819 C56.685,40.059,56.484,40,56.286,40c-0.315,0-0.625,0.148-0.819,0.427c-0.316,0.453-0.206,1.076,0.246,1.393 C58.397,43.698,60,46.756,60,50c0,5.514-4.486,10-10,10s-10-4.486-10-10c0-3.136,1.495-6.083,4-7.969V44c0,0.552,0.447,1,1,1 s1-0.448,1-1V39L46,39z"/></g></svg>