<svg xmlns="http://www.w3.org/2000/svg" version="1.1" xmlns:xlink="http://www.w3.org/1999/xlink" width="512" height="512" x="0" y="0" viewBox="0 0 512 512" style="enable-background:new 0 0 512 512" xml:space="preserve" class=""><g><linearGradient id="a" x1="261.613" x2="-72.457" y1="8802.763" y2="8468.693" gradientTransform="matrix(1 0 0 -1 0 8834)" gradientUnits="userSpaceOnUse"><stop offset="0" style="stop-color:#00A0FF" stop-color="#00a0ff"></stop><stop offset=".007" style="stop-color:#00A2FF" stop-color="#00a2ff"></stop><stop offset=".26" style="stop-color:#00BEFF" stop-color="#00beff"></stop><stop offset=".512" style="stop-color:#00D2FF" stop-color="#00d2ff"></stop><stop offset=".76" style="stop-color:#00DFFF" stop-color="#00dfff"></stop><stop offset="1" style="stop-color:#00E3FF" stop-color="#00e3ff"></stop></linearGradient><path d="M35.395 7.913c-5.789 6.127-9.212 15.64-9.212 27.966v440.242c0 12.336 3.424 21.839 9.212 27.966l1.473 1.435 246.615-246.613v-5.818L36.868 6.468l-1.473 1.445z" style="fill:url(#a);" fill=""></path><linearGradient id="b" x1="501.174" x2="19.512" y1="8577.99" y2="8577.99" gradientTransform="matrix(1 0 0 -1 0 8834)" gradientUnits="userSpaceOnUse"><stop offset="0" style="stop-color:#FFE000" stop-color="#ffe000"></stop><stop offset=".409" style="stop-color:#FFBD00" stop-color="#ffbd00"></stop><stop offset=".775" style="stop-color:#FFA600" stop-color="#ffa600"></stop><stop offset="1" style="stop-color:#FF9C00" stop-color="#ff9c00"></stop></linearGradient><path d="m365.683 341.149-82.2-82.24v-5.818l82.219-82.219 1.853 1.057 97.396 55.341c27.821 15.805 27.821 41.667 0 57.482l-97.396 55.341-1.872 1.056z" style="fill:url(#b);" fill=""></path><linearGradient id="c" x1="321.873" x2="-131.153" y1="8532.313" y2="8079.288" gradientTransform="matrix(1 0 0 -1 0 8834)" gradientUnits="userSpaceOnUse"><stop offset="0" style="stop-color:#FF3743" stop-color="#ff3743"></stop><stop offset="1" style="stop-color:#E30864" stop-color="#e30864"></stop></linearGradient><path d="m367.556 340.082-84.073-84.081L35.395 504.087c9.173 9.708 24.309 10.91 41.367 1.222l290.794-165.227" style="fill:url(#c);" fill=""></path><linearGradient id="d" x1="-27.071" x2="175.224" y1="8972.631" y2="8770.336" gradientTransform="matrix(1 0 0 -1 0 8834)" gradientUnits="userSpaceOnUse"><stop offset="0" style="stop-color:#00A06F" stop-color="#00a06f"></stop><stop offset=".069" style="stop-color:#00A86E" stop-color="#00a86e"></stop><stop offset=".476" style="stop-color:#00CF6E" stop-color="#00cf6e"></stop><stop offset=".801" style="stop-color:#00E76D" stop-color="#00e76d"></stop><stop offset="1" style="stop-color:#00EF6D" stop-color="#00ef6d"></stop></linearGradient><path d="M367.556 171.918 76.762 6.691C59.704-2.997 44.568-1.795 35.395 7.913l248.088 248.088 84.073-84.083z" style="fill:url(#d);" fill=""></path></g></svg>