<svg xmlns="http://www.w3.org/2000/svg" version="1.1" xmlns:xlink="http://www.w3.org/1999/xlink" width="512" height="512" x="0" y="0" viewBox="0 0 96 96" style="enable-background:new 0 0 512 512" xml:space="preserve" class=""><g><g data-name="09-timer"><path d="m77.08 28.577 5.748-5.748-5.656-5.658-6.149 6.149A39.747 39.747 0 0 0 52 16.2V8h8V0H36v8h8v8.2a39.747 39.747 0 0 0-19.023 7.12l-6.149-6.149-5.656 5.658 5.748 5.748a40 40 0 1 0 58.16 0zM48 88a32 32 0 1 1 32-32 32.036 32.036 0 0 1-32 32z" fill="#000000" opacity="1" data-original="#000000" class=""></path><path d="M48 32v24H24a24 24 0 1 0 24-24z" fill="#000000" opacity="1" data-original="#000000" class=""></path></g></g></svg>